<?xml version="1.0" standalone="no"?>
<!DOCTYPE svg PUBLIC "-//W3C//DTD SVG 20010904//EN"
 "http://www.w3.org/TR/2001/REC-SVG-20010904/DTD/svg10.dtd">
<svg version="1.0" xmlns="http://www.w3.org/2000/svg"
 width="474.000000pt" height="533.000000pt" viewBox="0 0 474.000000 533.000000"
 preserveAspectRatio="xMidYMid meet">

<g transform="translate(0.000000,533.000000) scale(0.100000,-0.100000)"
fill="#000000" stroke="none">
<path d="M2173 4958 c4 -24 9 -69 13 -100 l6 -58 -35 0 c-40 0 -41 3 -53 114
l-7 68 -55 -6 c-31 -4 -57 -8 -59 -9 -1 -2 4 -43 12 -92 8 -49 13 -90 12 -91
-1 -1 -16 -5 -34 -8 l-31 -7 -16 70 c-9 38 -16 78 -16 87 0 15 -9 16 -70 12
-39 -3 -72 -7 -75 -9 -2 -2 11 -81 28 -174 l32 -170 35 -1 35 0 17 -80 c9 -43
13 -82 10 -85 -8 -8 -114 -39 -131 -39 -6 0 -28 34 -48 75 -39 77 -38 84 2 98
8 3 -131 324 -144 331 -3 2 -34 -9 -69 -25 l-63 -28 41 -82 c23 -44 39 -83 37
-85 -3 -3 -20 -7 -38 -10 -34 -5 -35 -4 -74 70 -22 42 -41 76 -43 76 -4 0 -86
-41 -91 -46 -1 -1 16 -37 39 -78 42 -77 43 -88 10 -106 -16 -9 -25 1 -67 69
l-49 79 -59 -35 c-33 -19 -61 -36 -63 -38 -2 -1 38 -71 89 -154 63 -106 95
-151 105 -147 8 3 20 8 27 11 7 3 29 -22 56 -65 34 -56 41 -73 31 -85 -9 -11
-8 -19 6 -40 9 -14 15 -27 13 -29 -2 -1 -21 -13 -41 -25 l-37 -22 51 -80 c42
-67 53 -78 65 -67 13 10 20 6 44 -22 16 -19 29 -38 29 -42 0 -5 -121 -8 -270
-8 l-270 0 0 -1080 0 -1080 -296 0 -296 0 7 -27 c3 -16 35 -86 70 -158 470
-962 1520 -1428 2495 -1110 539 176 993 580 1250 1108 37 78 71 152 75 164 l6
23 -265 2 -266 3 0 1065 c0 586 -4 1071 -8 1077 -6 9 -71 13 -248 15 l-241 3
18 43 c18 42 19 42 42 27 28 -18 32 -15 70 60 43 87 43 89 -6 121 -39 24 -44
31 -37 53 4 14 2 33 -3 42 -7 12 0 30 27 73 37 58 42 60 86 42 11 -4 37 34
103 150 48 86 87 157 85 158 -27 19 -110 66 -117 66 -5 0 -30 -36 -57 -79 -49
-82 -49 -82 -92 -53 -9 6 -1 28 33 88 l46 79 -48 22 c-26 12 -51 19 -56 14 -4
-4 -25 -39 -45 -78 l-37 -70 -33 9 c-20 5 -32 14 -29 21 3 7 21 47 41 90 l36
78 -46 19 c-91 40 -80 49 -166 -135 l-77 -165 30 -15 29 -16 -36 -72 c-20 -39
-37 -73 -38 -74 -2 -2 -110 28 -153 42 -8 3 -9 14 -3 37 5 18 14 52 20 76 10
39 13 42 45 42 33 0 34 2 44 53 32 160 53 289 48 294 -9 8 -130 32 -139 27 -4
-3 -8 -11 -8 -18 0 -8 -7 -46 -16 -85 -15 -68 -17 -71 -45 -71 -33 0 -33 -3
-15 103 l13 79 -24 9 c-13 5 -39 9 -57 9 -33 0 -33 -1 -40 -52 -3 -29 -6 -69
-6 -90 0 -40 -8 -46 -53 -40 l-29 5 6 56 c4 31 9 75 13 99 l5 42 -56 2 c-31 1
-64 2 -73 2 -20 1 -25 -33 -38 -250 l-8 -121 27 -7 c23 -6 26 -11 26 -54 0
-93 0 -92 -106 -92 -83 0 -94 2 -94 18 -1 9 -3 43 -7 75 l-5 57 30 6 c30 6 31
7 26 53 -3 25 -11 107 -17 181 l-12 135 -74 3 -73 3 5 -43z m131 -15 c9 -66
28 -294 24 -298 -6 -6 -457 -47 -476 -43 -12 2 -22 39 -44 153 -15 83 -28 153
-28 156 0 12 104 19 111 7 4 -6 13 -41 20 -77 16 -89 16 -89 68 -78 l44 9 -7
56 c-3 32 -9 74 -12 95 l-7 37 45 0 45 0 7 -75 c10 -105 10 -105 68 -105 47 0
50 1 45 23 -3 12 -9 57 -12 100 l-7 77 55 0 55 0 6 -37z m275 30 c22 -6 23 -8
16 -82 -3 -42 -9 -86 -12 -98 -5 -22 -2 -23 50 -23 l54 0 7 53 c3 28 6 69 6
90 l0 37 46 0 c46 0 46 0 41 -30 -4 -16 -9 -58 -13 -93 l-6 -64 37 -7 c44 -9
50 -2 59 58 4 22 11 58 17 79 10 37 10 37 52 31 79 -13 76 0 44 -179 -16 -88
-30 -161 -31 -161 -2 -3 -481 48 -484 51 -4 4 16 260 24 313 4 28 8 32 37 32
18 0 43 -3 56 -7z m-916 -250 c37 -82 67 -151 67 -156 0 -4 -37 -25 -82 -46
-46 -21 -141 -66 -212 -100 -71 -34 -133 -60 -138 -59 -12 5 -167 271 -162
279 2 4 24 19 49 32 l44 25 50 -79 50 -79 36 21 c19 12 35 24 35 27 0 4 -18
40 -41 81 -22 41 -36 77 -32 81 4 3 20 11 35 18 27 11 28 10 69 -63 22 -41 46
-75 52 -75 19 0 87 20 87 26 0 2 -19 41 -41 86 -23 45 -37 84 -33 85 5 2 27
12 49 22 22 11 43 20 46 20 3 1 35 -65 72 -146z m1594 117 l43 -19 -36 -78
c-20 -43 -38 -83 -41 -90 -4 -10 52 -33 83 -33 7 0 29 34 49 75 21 41 39 75
40 75 2 0 19 -7 39 -15 l37 -16 -32 -57 c-18 -31 -36 -63 -42 -69 -13 -18 -3
-37 31 -62 l30 -21 52 84 53 83 48 -30 c43 -27 47 -32 37 -51 -69 -133 -153
-266 -164 -262 -71 27 -434 201 -432 206 26 67 144 300 152 300 6 0 30 -9 53
-20z m-977 -250 c0 -28 -2 -30 -40 -30 -35 0 -40 3 -40 23 0 31 7 37 47 37 30
0 33 -3 33 -30z m-100 -10 l0 -30 -80 0 c-78 0 -80 1 -80 24 0 26 10 29 123
34 35 2 37 0 37 -28z m408 -3 c3 -27 2 -28 -35 -25 -33 3 -38 6 -41 31 -3 27
-2 28 35 25 33 -3 38 -6 41 -31z m-588 -7 c0 -28 -2 -30 -39 -30 -26 0 -41 5
-45 16 -11 28 -6 33 37 37 23 2 43 4 45 5 1 1 2 -11 2 -28z m762 11 c4 -3 5
-15 2 -26 -5 -19 -11 -20 -80 -14 -41 3 -77 8 -80 12 -3 3 -3 15 1 27 7 21 11
21 78 15 40 -4 75 -10 79 -14z m108 -26 c0 -23 -4 -25 -45 -25 -41 0 -45 2
-45 25 0 23 4 25 45 25 41 0 45 -2 45 -25z m-590 -40 c0 -22 -4 -25 -34 -25
-18 0 -54 -3 -80 -6 l-46 -7 0 32 0 31 80 0 c79 0 80 0 80 -25z m392 9 c3 -2
4 -13 1 -24 -6 -22 -23 -24 -110 -14 -48 6 -53 9 -53 31 0 24 0 24 78 18 42
-4 80 -9 84 -11z m-572 -18 c0 -21 -6 -24 -52 -30 -98 -11 -115 -9 -120 19 -3
13 -3 27 0 30 3 3 43 5 89 5 81 0 83 -1 83 -24z m-392 -10 c9 -21 7 -25 -26
-40 -34 -17 -37 -17 -49 0 -18 25 -17 28 20 47 42 21 42 21 55 -7z m1149 11
c2 -3 0 -14 -5 -24 -9 -16 -19 -17 -83 -13 -69 5 -74 7 -77 29 l-4 24 82 -6
c45 -3 84 -7 87 -10z m296 -14 c20 -6 21 -16 7 -44 -10 -18 -12 -18 -43 -3
-42 22 -40 19 -27 44 8 15 17 19 28 15 9 -4 25 -10 35 -12z m-1533 -43 c10
-19 4 -23 -62 -55 -67 -33 -74 -34 -85 -18 -20 27 -16 32 50 63 74 35 83 36
97 10z m545 10 c-89 -17 -125 -20 -125 -11 0 12 37 18 110 18 53 1 54 1 15 -7z
m574 -6 c11 -10 -11 -10 -99 2 l-95 13 95 -5 c52 -3 97 -8 99 -10z m526 -16
c65 -32 72 -41 56 -67 -8 -12 -20 -9 -75 14 -76 32 -77 33 -69 63 7 28 11 28
88 -10z m-1530 1 c9 -26 4 -30 -73 -65 -53 -23 -65 -25 -73 -13 -5 8 -9 17 -9
21 0 7 127 76 142 78 4 0 10 -9 13 -21z m285 11 c0 -11 -7 -14 -52 -24 -23 -5
-28 -3 -28 14 0 17 7 20 40 20 22 0 40 -5 40 -10z m666 -15 c191 -29 441 -108
622 -198 57 -29 75 -48 53 -61 -4 -3 -53 15 -107 39 -290 132 -608 196 -899
181 -277 -13 -496 -68 -789 -197 -101 -45 -110 -47 -122 -31 -7 9 -12 21 -10
27 6 20 227 122 352 163 298 97 595 122 900 77z m154 -1 c0 -10 -8 -13 -27 -8
-46 10 -54 13 -49 22 8 14 76 1 76 -14z m310 -19 c72 -36 76 -40 61 -64 -8
-12 -22 -9 -83 19 -40 18 -74 34 -76 36 -5 3 17 44 24 44 2 0 36 -16 74 -35z
m-1692 -39 c10 -22 7 -25 -29 -41 -38 -18 -40 -18 -54 1 -20 27 -19 30 23 47
49 20 47 20 60 -7z m305 10 c4 -10 -7 -19 -31 -29 -58 -23 -75 -2 -19 26 40
20 44 20 50 3z m1651 -51 c-15 -23 -16 -24 -50 -8 -37 18 -39 24 -24 54 11 19
11 19 50 -1 39 -20 40 -21 24 -45z m-339 43 c28 -13 33 -28 9 -28 -23 0 -55
20 -49 31 8 11 9 11 40 -3z m-1497 -18 c12 -19 8 -23 -70 -59 -82 -37 -83 -38
-97 -18 -8 12 -11 22 -5 24 5 2 41 19 79 38 39 18 72 34 75 34 3 1 11 -8 18
-19z m1232 -15 c174 -36 313 -84 465 -160 186 -93 176 -81 135 -164 l-33 -70
-97 49 c-228 115 -408 173 -635 206 -153 23 -427 15 -580 -16 -191 -38 -440
-134 -559 -215 -21 -14 -40 -25 -41 -23 -2 2 -21 32 -43 67 l-41 65 32 20 c73
44 283 138 394 174 246 82 386 102 663 98 184 -4 233 -8 340 -31z m506 -10
c69 -31 74 -36 64 -55 -6 -11 -12 -20 -14 -20 -7 0 -146 70 -146 74 0 9 12 36
17 36 2 0 38 -16 79 -35z m-51 -53 c-9 -9 -145 52 -145 64 0 10 24 2 75 -23
41 -20 72 -39 70 -41z m-1595 61 c0 -13 -139 -72 -145 -63 -3 5 20 23 52 39
57 29 93 39 93 24z m-160 -73 c0 -17 -61 -43 -73 -31 -7 7 0 15 24 25 41 18
49 19 49 6z m1820 -10 c21 -11 28 -19 18 -20 -22 0 -68 21 -68 32 0 12 11 9
50 -12z m-760 -69 c0 -5 -7 -25 -15 -45 l-15 -36 -103 0 c-56 0 -131 -3 -167
-6 l-65 -6 -13 34 c-18 51 -16 56 26 61 77 8 352 7 352 -2z m260 -36 c82 -20
238 -71 248 -81 2 -1 -1 -18 -7 -37 l-12 -35 -62 20 c-88 28 -270 66 -352 73
-99 9 -97 8 -73 56 l20 42 71 -7 c40 -4 115 -17 167 -31z m-657 -17 c9 -23 16
-42 14 -43 -1 -1 -39 -7 -85 -14 -45 -7 -130 -25 -187 -42 -58 -16 -109 -29
-113 -29 -10 0 -45 60 -39 66 18 19 318 101 373 103 16 1 25 -10 37 -41z m571
-72 c49 -8 90 -17 92 -19 2 -2 -4 -22 -13 -45 -18 -48 -18 -48 -128 -27 -43 9
-125 18 -182 22 l-103 6 0 43 c0 23 5 44 10 46 20 6 237 -11 324 -26z m-354
-20 l0 -43 -107 -7 c-60 -4 -136 -13 -171 -20 l-62 -14 -20 42 c-19 38 -20 31
-5 -21 6 -20 1 -23 -51 -38 -33 -9 -90 -27 -127 -41 -38 -13 -87 -24 -111 -24
-37 0 -45 4 -55 27 -15 32 -15 32 99 73 179 66 382 107 533 109 l77 1 0 -44z
m-627 -7 c20 -37 22 -49 4 -49 -7 0 -55 -20 -106 -45 -51 -25 -96 -45 -100
-45 -4 0 -17 13 -29 30 l-22 29 32 18 c40 21 191 92 198 92 3 1 13 -13 23 -30z
m1498 -44 c51 -26 58 -40 37 -67 -12 -15 -23 -12 -114 25 -55 23 -102 46 -103
50 -2 4 2 21 8 37 l10 29 56 -24 c31 -14 79 -37 106 -50z m-295 20 c93 -27
184 -59 215 -76 16 -8 17 -13 7 -34 -10 -23 -17 -25 -71 -25 -40 0 -96 12
-175 36 -65 20 -118 38 -119 39 -7 5 34 85 43 85 7 0 52 -11 100 -25z m-1308
-115 c12 -19 10 -20 -40 -20 l-53 1 35 19 c44 24 43 24 58 0z m1597 8 c37 -17
31 -28 -15 -28 -43 0 -43 0 -34 24 7 19 15 20 49 4z m-905 -378 l0 -280 -480
0 -480 0 0 89 0 90 28 3 c23 3 27 8 27 33 0 25 -4 30 -27 33 -34 4 -41 42 -8
42 13 0 20 7 20 19 0 10 -9 21 -20 24 -34 9 -25 37 12 37 l33 0 -57 56 -56 57
-56 -49 c-61 -53 -67 -64 -36 -64 13 0 20 -7 20 -20 0 -11 -7 -20 -15 -20 -19
0 -20 -26 -2 -37 8 -4 16 -16 20 -25 5 -15 1 -18 -23 -18 -28 0 -30 -3 -30
-35 0 -31 3 -35 25 -35 l25 0 0 -177 -1 -178 -69 -115 c-66 -110 -68 -115 -47
-121 16 -5 18 -8 7 -12 -31 -11 -79 -13 -83 -3 -6 16 -5 958 0 974 4 9 141 12
639 12 l634 0 0 -280z m873 195 c70 -34 97 -120 56 -179 -13 -19 -35 -41 -49
-50 -40 -23 -35 -46 10 -46 36 0 36 1 85 101 28 55 53 103 57 105 5 3 -6 -32
-23 -78 -37 -97 -45 -128 -33 -128 11 0 41 45 88 130 20 36 36 63 36 60 0 -3
-16 -52 -35 -109 -41 -122 -39 -111 -21 -111 12 0 62 97 81 158 4 13 9 21 12
19 7 -8 -48 -180 -70 -216 -11 -18 -34 -39 -51 -46 -28 -12 -39 -30 -96 -167
-62 -148 -64 -156 -68 -253 -3 -89 -1 -107 23 -166 28 -72 47 -86 103 -73 99
21 112 44 112 194 0 116 -5 127 -42 93 -19 -17 -19 -15 -12 72 9 111 9 113 16
120 6 6 120 -117 126 -136 2 -5 -2 -9 -10 -9 -36 -1 -39 -14 -24 -91 26 -135
28 -180 9 -219 -27 -52 -73 -78 -154 -86 -38 -4 -69 -8 -69 -9 0 -1 7 -19 15
-38 19 -45 19 -67 2 -67 -8 0 -20 21 -28 47 -8 25 -20 48 -26 50 -7 3 -35 -17
-64 -44 -47 -44 -52 -46 -64 -29 -8 10 -28 28 -46 42 l-32 23 -24 -51 c-18
-38 -27 -48 -35 -40 -8 8 -7 22 5 52 8 22 12 42 9 44 -4 2 -34 7 -67 11 -64 7
-121 35 -129 63 -5 17 -7 173 -3 282 2 50 0 55 -21 58 -20 3 -17 9 39 78 34
41 66 74 70 74 5 0 9 -17 9 -37 0 -21 3 -69 7 -108 l6 -70 -22 19 c-11 11 -24
16 -29 12 -4 -4 -9 -51 -10 -105 -6 -154 26 -201 126 -186 47 7 86 40 76 65
-45 104 -42 162 12 214 19 18 34 37 34 42 0 5 -28 82 -62 172 -53 137 -66 162
-83 162 -26 0 -61 24 -76 52 -14 25 -70 220 -65 225 2 2 20 -36 41 -84 20 -48
41 -92 46 -97 21 -22 19 9 -5 105 -14 57 -24 104 -23 106 2 2 25 -43 50 -99
36 -76 50 -99 59 -90 8 8 3 32 -20 93 -17 46 -30 85 -28 87 6 5 86 -158 86
-174 0 -8 7 -14 15 -14 13 0 14 15 10 98 -5 84 -3 101 13 128 36 57 114 79
175 49z m-873 -521 c0 -2 -215 -3 -477 -2 l-478 3 465 5 c435 5 490 4 490 -6z
m-474 -147 c22 -14 51 -38 66 -53 27 -29 85 -164 70 -164 -5 0 -16 24 -25 53
-33 105 -122 176 -221 177 -106 0 -187 -72 -226 -202 -13 -42 7 -34 20 8 19
55 96 130 150 144 102 27 199 -20 251 -122 29 -56 26 -67 -18 -61 -20 3 -54
11 -76 19 -57 20 -108 17 -189 -11 -93 -32 -157 -32 -244 1 -58 22 -79 25
-132 20 -57 -5 -62 -4 -53 12 27 51 96 75 151 52 16 -7 38 -26 50 -44 25 -40
26 -21 0 21 -21 35 -66 63 -102 63 -39 0 -88 -38 -108 -83 -11 -23 -20 -34
-20 -25 0 28 41 88 71 103 76 40 175 -9 194 -95 10 -45 31 -36 51 22 32 99 82
154 163 185 51 19 130 10 177 -20z m-434 -297 c50 -16 103 -30 117 -30 15 0
65 13 111 30 97 34 142 37 200 14 32 -13 40 -21 40 -41 0 -22 -3 -24 -22 -18
-13 4 -50 9 -84 12 -49 4 -75 0 -133 -21 -90 -32 -136 -33 -229 -1 -90 30
-150 32 -221 4 -30 -11 -74 -24 -98 -28 -37 -7 -43 -6 -48 10 -9 28 0 36 47
44 23 4 69 18 103 31 79 30 108 30 217 -6z m903 -535 l0 -560 -45 3 c-124 9
-269 84 -319 166 -20 32 -21 46 -21 495 l0 461 193 -2 192 -3 0 -560z m387
560 c11 -4 13 -89 11 -463 -2 -251 -3 -460 -3 -463 0 -3 -18 -27 -40 -51 -66
-76 -158 -125 -267 -143 l-43 -7 0 566 0 566 164 0 c90 0 170 -2 178 -5z
m-1278 -166 c99 -34 125 -34 236 8 68 26 135 28 193 5 22 -9 27 -18 27 -45 l0
-34 -52 18 c-73 25 -104 24 -208 -11 -50 -16 -98 -30 -108 -30 -9 0 -55 14
-102 30 -103 36 -141 37 -222 6 -79 -29 -135 -40 -143 -27 -11 19 6 59 23 55
9 -3 55 9 102 25 109 38 146 38 254 0z m-69 -124 c28 -12 24 -13 -64 -14 -57
-1 -91 3 -85 8 23 22 106 26 149 6z m463 -5 c12 -7 -10 -9 -75 -10 -51 0 -93
2 -93 5 0 2 15 9 33 14 36 11 109 6 135 -9z m1872 -429 l0 -359 -47 -63 -46
-63 -11 45 c-30 115 -132 193 -292 224 -69 13 -230 86 -361 163 -29 17 -79 36
-112 43 l-61 12 0 172 c0 94 3 175 7 178 3 4 213 7 465 7 l458 0 0 -359z
m-1834 212 c-53 -170 -23 -451 77 -705 l30 -78 95 0 94 0 -6 -25 c-3 -14 -8
-35 -11 -47 -6 -25 6 -31 128 -66 l57 -17 0 -42 c0 -28 -4 -43 -12 -43 -7 0
-51 14 -98 30 -46 17 -98 30 -115 30 -17 0 -69 -13 -115 -30 -47 -16 -93 -30
-103 -30 -11 0 -59 14 -109 31 -101 35 -149 35 -228 1 -96 -42 -103 -41 -178
32 l-67 67 53 -21 c55 -21 108 -26 130 -11 10 6 2 15 -30 34 -24 14 -78 61
-118 104 l-75 78 37 3 36 3 -25 56 c-31 68 -41 171 -21 225 10 27 40 58 118
120 111 89 109 86 99 168 -6 51 22 47 34 -5 6 -22 11 -42 13 -43 1 -2 38 23
82 56 96 73 202 142 220 142 8 0 11 -7 8 -17z m758 -610 c-3 -16 -5 -80 -5
-144 1 -113 1 -117 -21 -122 -13 -4 -26 -3 -31 2 -5 5 -4 66 1 136 7 106 12
130 27 141 28 21 36 17 29 -13z m-1629 -51 c41 -64 169 -224 241 -298 232
-242 530 -410 854 -480 121 -27 439 -27 560 0 330 71 602 225 854 481 83 84
210 242 252 314 l18 31 228 0 c125 0 228 -2 228 -5 0 -13 -117 -236 -160 -306
-263 -423 -658 -740 -1110 -887 -223 -73 -376 -96 -620 -96 -331 1 -611 70
-897 220 -188 98 -329 201 -492 359 -121 117 -199 211 -291 351 -65 98 -190
331 -190 353 0 8 78 11 248 11 l247 0 30 -48z m2085 -67 c25 22 55 12 70 -25
7 -16 16 -28 20 -25 8 5 25 -103 18 -111 -3 -2 -20 1 -39 6 -18 6 -52 10 -74
10 l-40 0 1 65 c1 35 6 92 10 127 l9 63 3 -64 c3 -61 4 -63 22 -46z m-610 13
c-5 -43 -18 -84 -41 -128 l-34 -65 -3 114 c-1 63 -1 120 2 127 4 11 60 24 77
17 3 -1 2 -30 -1 -65z m224 -56 c-5 -76 -10 -102 -21 -102 -19 0 -17 104 3
164 9 26 18 45 20 43 2 -2 1 -50 -2 -105z m54 -213 c81 -36 128 -36 233 1 105
36 122 36 236 -6 70 -26 73 -28 57 -45 -22 -25 -39 -24 -118 6 -86 32 -111 32
-223 -7 l-93 -31 -93 31 c-111 38 -137 39 -221 8 -35 -13 -79 -26 -97 -28 -28
-2 -34 0 -34 17 0 15 9 21 41 26 22 4 58 15 80 24 90 40 151 41 232 4z m-944
-50 c97 -33 125 -33 204 1 81 36 107 36 219 -1 l102 -34 1 -43 c0 -41 -1 -42
-27 -36 -16 4 -57 17 -92 30 -82 31 -109 30 -215 -7 -97 -33 -112 -33 -208 7
-66 28 -109 30 -168 9 -42 -15 -43 -14 -82 14 l-39 29 28 10 c170 63 159 62
277 21z m928 -78 c80 -36 123 -37 216 -2 94 35 127 38 179 16 l37 -16 -23 -15
c-13 -10 -48 -17 -84 -19 -39 -2 -84 -13 -122 -29 -75 -32 -114 -32 -190 -1
-99 41 -116 41 -224 5 -105 -36 -131 -35 -131 4 0 20 6 25 38 29 20 3 66 17
102 31 75 30 128 29 202 -3z m-940 -61 c100 -37 131 -37 211 -4 81 34 135 34
219 1 36 -15 76 -27 87 -27 18 0 21 -6 21 -45 0 -55 -11 -57 -101 -20 -98 40
-116 40 -213 6 l-88 -30 -74 29 c-41 17 -107 46 -147 66 -60 31 -69 38 -52 45
33 13 51 10 137 -21z m952 -88 l70 -27 -44 -12 c-36 -11 -52 -10 -96 3 -52 15
-55 15 -142 -15 -49 -17 -102 -31 -116 -31 -24 0 -27 4 -24 28 3 23 9 28 43
33 22 4 71 18 109 32 79 29 97 28 200 -11z m-526 -57 c34 -14 74 -25 89 -25
18 0 23 -3 16 -8 -24 -15 -293 21 -293 38 0 28 116 24 188 -5z"/>
<path d="M1676 3663 c-14 -18 -14 -23 -3 -23 8 0 32 -7 53 -16 32 -14 36 -18
23 -28 -9 -6 -21 -22 -28 -36 l-12 -25 18 22 c10 12 31 27 46 32 24 10 29 8
36 -12 5 -12 6 -28 3 -36 -4 -9 -1 -12 7 -7 8 5 10 19 6 37 -6 26 -4 29 20 29
31 0 43 -25 25 -54 -13 -21 -13 -21 9 -2 12 11 19 26 17 33 -3 7 1 13 8 13 21
0 37 -25 29 -45 -4 -13 -3 -16 5 -11 16 9 15 39 0 54 -10 10 -5 11 22 6 l35
-7 -27 26 c-16 14 -28 30 -28 36 0 16 -61 29 -156 33 -85 4 -91 3 -108 -19z"/>
<path d="M1682 3459 c-14 -22 -15 -29 -3 -29 5 0 26 -7 47 -16 32 -14 36 -18
23 -28 -9 -6 -21 -22 -28 -36 l-12 -25 18 21 c18 21 62 49 68 42 1 -2 10 -16
19 -33 l17 -30 -6 33 c-6 29 -4 32 17 32 35 0 50 -18 36 -44 -10 -19 -10 -20
5 -7 10 7 17 20 17 28 0 21 23 10 37 -18 13 -24 13 -24 13 -1 0 12 -4 22 -10
22 -5 0 -10 4 -10 10 0 5 14 7 33 4 32 -6 32 -6 11 13 -12 10 -27 28 -33 40
-12 24 -35 28 -172 37 -66 4 -77 2 -87 -15z"/>
<path d="M3115 3675 c-30 -29 -32 -45 -7 -45 10 0 40 -14 67 -31 37 -24 50
-28 56 -17 17 25 9 60 -20 89 -36 35 -64 37 -96 4z"/>
<path d="M3240 3380 c-31 -5 -34 -8 -36 -40 0 -22 6 -43 18 -56 10 -12 22 -34
26 -49 7 -25 10 -23 35 40 25 65 26 69 9 89 -13 17 -25 20 -52 16z"/>
<path d="M3002 3367 c-8 -10 2 -46 38 -142 28 -71 53 -132 57 -136 14 -14 -3
153 -21 224 -16 58 -22 67 -41 67 -12 0 -27 -6 -33 -13z"/>
<path d="M1999 2543 c-7 -16 -15 -32 -18 -37 -2 -5 4 -6 13 -3 10 4 15 3 11
-3 -3 -6 -2 -10 3 -10 6 0 15 -14 21 -31 6 -17 15 -28 21 -24 5 3 7 0 4 -8
-10 -27 14 -27 31 -1 14 22 15 28 4 35 -11 7 -11 9 1 9 8 0 25 8 38 18 21 16
21 19 7 37 -9 11 -13 14 -9 6 4 -9 3 -12 -4 -8 -5 4 -8 16 -5 27 4 14 0 20
-10 20 -9 0 -18 -4 -21 -9 -7 -10 -31 -9 -42 2 -14 14 -31 6 -45 -20z m101
-57 c-7 -7 -13 -7 -20 0 -6 6 -3 10 10 10 13 0 16 -4 10 -10z"/>
<path d="M2179 2535 c-18 -38 -8 -55 18 -33 12 9 15 10 9 0 -10 -17 3 -54 16
-46 7 4 8 2 4 -4 -7 -12 14 -52 27 -52 5 0 6 7 3 16 -3 8 -2 12 3 9 5 -3 13 4
16 16 4 12 19 33 33 46 19 18 23 26 14 35 -7 7 -12 20 -12 31 0 14 -5 17 -22
12 -13 -4 -30 -9 -40 -11 -9 -3 -19 0 -23 6 -12 19 -30 9 -46 -25z m61 -29 c0
-2 -8 -10 -17 -17 -16 -13 -17 -12 -4 4 13 16 21 21 21 13z m34 -13 c4 -9 1
-21 -5 -27 -9 -8 -10 -8 -5 2 4 7 2 19 -4 27 -7 9 -8 15 -2 15 5 0 13 -8 16
-17z"/>
<path d="M2103 2350 c3 -11 1 -18 -3 -15 -5 3 -14 -4 -20 -15 -9 -17 -7 -22
15 -32 14 -6 25 -17 25 -25 0 -7 5 -13 11 -13 5 0 8 -4 5 -9 -3 -4 1 -16 8
-26 12 -16 15 -15 36 21 13 22 32 46 42 55 19 15 19 16 1 47 -17 30 -43 43
-43 22 0 -11 -35 -8 -46 3 -16 15 -36 7 -31 -13z m102 -10 c-3 -5 -12 -10 -18
-10 -7 0 -6 4 3 10 19 12 23 12 15 0z m-12 -41 c5 -3 2 -9 -5 -12 -9 -3 -14 3
-15 15 -1 11 1 16 5 12 4 -5 11 -12 15 -15z m-45 -24 c-3 -3 -9 2 -12 12 -6
14 -5 15 5 6 7 -7 10 -15 7 -18z"/>
<path d="M2000 2100 c0 -9 -6 -22 -12 -29 -11 -10 -9 -15 6 -26 10 -8 23 -12
27 -9 5 3 9 0 9 -6 0 -6 5 -8 12 -4 7 4 8 3 4 -5 -4 -6 -12 -9 -17 -6 -14 9
-11 -3 7 -30 21 -33 30 -31 50 8 9 17 25 39 35 47 17 13 18 19 7 46 -11 30
-13 31 -70 30 -45 -1 -58 -4 -58 -16z m106 -42 c5 4 5 3 1 -2 -13 -16 -37 -15
-37 1 0 12 3 13 13 4 8 -6 18 -7 23 -3z"/>
<path d="M2175 2088 c-15 -32 -15 -33 10 -51 14 -10 25 -25 25 -32 0 -7 8 -23
19 -36 l18 -23 16 25 c25 41 30 67 11 65 -9 0 -18 7 -19 17 -2 9 1 15 6 11 5
-3 7 -10 4 -15 -9 -13 9 -11 24 4 11 10 13 10 7 0 -9 -15 20 -18 29 -3 3 6 1
10 -4 10 -6 0 -10 3 -10 8 2 13 -1 27 -9 40 -12 18 -42 4 -36 -16 5 -14 4 -14
-6 1 -6 9 -15 15 -20 12 -5 -3 -11 -1 -15 5 -12 19 -34 10 -50 -22z m123 -3
c-3 -3 -9 2 -12 12 -6 14 -5 15 5 6 7 -7 10 -15 7 -18z m-63 -55 c3 -6 -1 -7
-9 -4 -18 7 -21 14 -7 14 6 0 13 -4 16 -10z m35 -20 c0 -5 -5 -10 -11 -10 -5
0 -7 5 -4 10 3 6 8 10 11 10 2 0 4 -4 4 -10z"/>
<path d="M2563 2643 c-19 -7 -54 -69 -48 -85 4 -9 -4 -22 -20 -32 -23 -15 -26
-22 -20 -55 5 -30 2 -40 -18 -59 -20 -19 -24 -31 -22 -68 2 -24 -1 -46 -6 -50
-12 -7 -12 -44 0 -44 5 0 7 -9 4 -20 -3 -11 -9 -20 -13 -20 -4 0 -10 -9 -13
-20 -3 -11 -1 -20 3 -20 4 0 13 -14 19 -31 8 -23 15 -30 27 -25 10 4 22 0 29
-10 8 -11 17 -14 26 -8 8 4 22 10 32 11 16 3 18 -4 15 -49 l-3 -53 -42 2 c-31
1 -43 -2 -43 -12 0 -7 -11 -22 -25 -33 -28 -22 -23 -32 14 -32 40 0 54 -14 49
-48 -2 -17 -1 -29 4 -26 4 3 8 12 8 20 0 22 20 17 30 -8 9 -22 9 -22 9 3 1 22
7 28 32 31 31 5 31 4 26 -31 l-6 -36 15 28 c18 33 32 34 44 5 5 -13 9 -17 9
-10 1 7 -4 22 -9 33 -7 13 -8 25 -1 37 9 15 11 14 20 -8 8 -21 10 -22 10 -5 1
27 -42 66 -82 74 -31 6 -32 9 -35 60 -3 47 -1 53 14 47 9 -3 22 -2 28 3 6 5
22 11 36 13 22 3 26 9 30 50 3 26 2 55 -2 63 -5 8 -4 23 1 34 6 10 8 21 4 24
-3 4 -7 23 -9 44 -2 21 -7 39 -12 41 -5 1 -7 26 -4 54 4 39 1 53 -11 59 -9 5
-21 33 -27 63 -11 56 -46 107 -67 99z m17 -107 c0 -11 -19 -15 -25 -6 -3 5 1
10 9 10 9 0 16 -2 16 -4z m-30 -106 c0 -5 -7 -10 -15 -10 -8 0 -15 5 -15 10 0
6 7 10 15 10 8 0 15 -4 15 -10z m80 0 c0 -5 -7 -10 -15 -10 -8 0 -15 5 -15 10
0 6 7 10 15 10 8 0 15 -4 15 -10z m-110 -120 c0 -5 -7 -10 -15 -10 -8 0 -15 5
-15 10 0 6 7 10 15 10 8 0 15 -4 15 -10z m125 -40 c-3 -5 -13 -6 -21 -3 -12 4
-13 8 -3 14 15 9 32 2 24 -11z m-85 -60 c0 -5 -7 -10 -15 -10 -8 0 -15 5 -15
10 0 6 7 10 15 10 8 0 15 -4 15 -10z m85 -40 c-3 -5 -10 -10 -16 -10 -5 0 -9
5 -9 10 0 6 7 10 16 10 8 0 12 -4 9 -10z"/>
<path d="M1495 1618 c-29 -10 -78 -48 -72 -55 6 -6 200 -54 203 -50 3 2 1 28
-3 58 l-8 54 -45 2 c-25 1 -58 -3 -75 -9z"/>
<path d="M1655 1563 c4 -35 13 -63 23 -70 18 -14 302 -19 302 -5 0 15 -212
103 -304 126 l-28 7 7 -58z"/>
<path d="M719 1581 c-33 -33 -35 -50 -14 -92 16 -29 58 -54 75 -44 12 8 0 45
-15 45 -8 0 -17 10 -21 22 -8 25 27 61 51 52 17 -7 29 -40 20 -54 -6 -9 16
-40 28 -40 3 0 9 13 15 28 7 20 6 37 -3 59 -25 60 -89 71 -136 24z"/>
<path d="M3852 1514 c-13 -26 -22 -47 -20 -49 12 -9 141 -75 143 -73 1 2 14
24 29 50 27 46 27 47 7 58 -18 9 -23 7 -33 -15 -6 -14 -17 -25 -24 -25 -11 0
-11 5 -2 26 10 21 9 27 -3 35 -14 8 -32 -7 -42 -35 -2 -6 -7 -8 -11 -4 -4 3
-1 20 8 36 14 27 14 31 0 36 -26 10 -29 8 -52 -40z"/>
<path d="M823 1443 c-59 -33 -76 -54 -53 -68 8 -5 140 61 140 70 0 11 -13 35
-19 34 -3 0 -34 -16 -68 -36z"/>
<path d="M892 1413 c-48 -23 -83 -69 -77 -101 11 -62 85 -71 143 -18 35 33 36
36 20 52 -17 17 -19 17 -45 -8 -16 -15 -37 -28 -47 -30 -35 -6 -28 21 13 49
60 42 55 86 -7 56z"/>
<path d="M3776 1384 c-3 -9 -6 -17 -6 -19 0 -6 118 -85 127 -85 4 0 20 19 35
43 25 39 26 43 11 55 -14 10 -20 8 -38 -13 l-20 -25 -45 30 c-52 35 -56 35
-64 14z"/>
<path d="M3742 1333 c-8 -14 1 -26 51 -65 46 -35 64 -44 74 -36 20 17 16 23
-39 65 -74 55 -76 56 -86 36z"/>
<path d="M943 1257 c-28 -23 -52 -47 -52 -54 -1 -21 60 -73 86 -73 33 0 83 51
83 85 0 42 -28 85 -55 84 -5 0 -33 -19 -62 -42z m67 -62 c-15 -18 -46 -20 -56
-4 -3 6 6 22 22 34 28 23 29 23 38 5 6 -13 5 -25 -4 -35z"/>
<path d="M3700 1281 c-8 -16 -6 -23 12 -35 21 -15 21 -17 5 -33 -15 -16 -18
-16 -36 1 -21 19 -41 14 -41 -8 0 -15 102 -106 118 -106 23 0 23 35 0 52 -21
15 -22 18 -7 33 14 14 18 14 41 -5 23 -18 27 -18 39 -4 11 14 5 23 -46 70 -33
29 -63 53 -67 54 -4 0 -12 -9 -18 -19z"/>
<path d="M3575 1145 c-52 -51 -16 -145 55 -145 41 0 80 39 80 80 0 40 -27 40
-41 1 -13 -38 -32 -45 -61 -21 -19 15 -21 22 -12 37 6 10 20 19 32 21 21 3 36
27 26 43 -10 17 -55 9 -79 -16z"/>
<path d="M1052 1128 c-68 -28 -72 -32 -57 -48 9 -10 25 -15 39 -13 26 5 56
-30 36 -42 -15 -9 -12 -19 10 -33 19 -11 23 -7 57 62 31 63 35 77 24 90 -17
21 -23 20 -109 -16z m62 -33 c-4 -8 -11 -12 -16 -9 -6 4 -5 10 3 15 19 12 19
11 13 -6z"/>
<path d="M1169 1025 c-24 -30 -44 -60 -44 -67 0 -15 44 -46 77 -54 37 -8 88
41 88 84 0 32 -42 92 -64 92 -7 0 -33 -25 -57 -55z m74 -17 c11 -36 -31 -74
-56 -49 -8 8 -4 18 13 36 26 28 36 31 43 13z"/>
<path d="M3465 946 c-27 -22 -28 -26 -15 -40 14 -14 18 -13 48 10 26 21 30 29
21 40 -15 19 -19 18 -54 -10z"/>
<path d="M1340 888 l-40 -63 25 -22 c18 -16 39 -23 66 -23 34 0 42 5 59 33 27
43 25 69 -6 106 -39 46 -59 40 -104 -31z m78 -28 c-4 -28 -33 -49 -47 -35 -7
7 -4 22 10 44 22 37 43 31 37 -9z"/>
<path d="M3300 930 c-13 -8 -13 -13 3 -40 21 -35 20 -35 -34 -14 -37 15 -42
15 -56 1 -14 -14 -12 -20 16 -69 49 -85 46 -82 70 -68 21 11 22 13 6 37 -22
33 -16 36 29 18 30 -13 40 -13 55 -3 18 13 17 17 -21 81 -41 70 -44 73 -68 57z"/>
<path d="M1475 813 c-17 -37 -31 -70 -33 -73 -1 -4 20 -17 48 -30 44 -20 53
-22 61 -10 13 23 11 27 -21 40 -35 14 -41 35 -7 25 36 -12 41 -11 44 7 3 10
-4 19 -16 23 -12 3 -21 11 -21 16 0 12 4 11 35 -3 22 -10 28 -9 36 3 5 8 9 16
9 20 0 6 -86 49 -98 49 -4 0 -21 -30 -37 -67z"/>
<path d="M3087 856 c-3 -8 -3 -17 0 -20 7 -7 33 13 33 25 0 15 -27 10 -33 -5z"/>
<path d="M3091 814 c-76 -64 -1 -174 94 -138 19 8 45 55 45 84 0 30 -53 80
-83 80 -14 0 -39 -12 -56 -26z m89 -43 c14 -28 -18 -66 -48 -57 -26 9 -38 42
-22 61 18 21 57 18 70 -4z"/>
<path d="M1679 751 c-37 -38 -39 -82 -4 -116 27 -28 71 -33 100 -12 26 20 10
40 -26 33 -36 -7 -64 26 -48 56 12 22 57 24 65 3 9 -22 44 -19 44 4 0 25 -46
61 -77 61 -14 0 -37 -13 -54 -29z"/>
<path d="M2988 774 c-7 -6 42 -154 51 -154 3 0 12 4 20 9 12 8 10 20 -11 78
-22 61 -43 85 -60 67z"/>
<path d="M2860 725 c-34 -37 -33 -90 4 -121 15 -13 38 -24 52 -24 26 0 84 48
84 69 0 16 -36 13 -50 -5 -20 -24 -64 -14 -68 15 -5 32 22 52 58 44 34 -6 49
13 24 32 -30 23 -77 18 -104 -10z"/>
<path d="M1863 720 c-57 -23 -66 -100 -16 -140 71 -55 160 18 127 105 -7 17
-55 45 -76 44 -7 0 -23 -4 -35 -9z m67 -55 c27 -32 -23 -82 -55 -55 -15 13
-20 51 -8 63 12 12 50 7 63 -8z"/>
<path d="M2767 706 c-15 -12 -16 -18 -8 -35 13 -24 14 -78 2 -85 -14 -9 -32
21 -38 64 -5 34 -9 40 -29 40 -27 0 -30 -14 -13 -73 20 -72 77 -99 119 -57 24
24 26 76 6 125 -17 40 -15 39 -39 21z"/>
<path d="M2004 663 c-4 -21 -8 -58 -8 -83 -1 -39 2 -45 19 -45 15 0 21 8 25
35 l6 35 22 -42 c17 -32 28 -43 46 -43 21 0 24 6 30 51 4 29 10 65 13 80 5 26
3 29 -21 29 -22 0 -26 -4 -26 -30 0 -39 -14 -38 -30 0 -12 29 -37 50 -59 50
-6 0 -13 -17 -17 -37z"/>
<path d="M2590 683 c-60 -9 -70 -14 -70 -33 0 -14 7 -20 24 -20 22 0 25 -5 31
-55 8 -59 13 -68 34 -55 10 6 12 23 8 64 -4 40 -2 56 6 56 23 0 38 17 31 33
-6 17 -15 18 -64 10z"/>
<path d="M2193 658 c-21 -28 -22 -49 -3 -68 11 -11 26 -20 34 -20 8 0 18 -5
22 -12 5 -8 -3 -9 -29 -5 -40 6 -56 -6 -37 -28 17 -20 75 -19 95 1 27 27 15
67 -22 79 -44 12 -42 29 1 21 41 -8 59 10 31 31 -24 16 -79 17 -92 1z"/>
<path d="M2317 663 c-15 -15 -7 -43 13 -43 16 0 20 -7 20 -37 0 -57 10 -83 31
-83 17 0 19 8 19 65 0 58 2 65 20 65 13 0 20 7 20 20 0 18 -7 20 -58 20 -32 0
-62 -3 -65 -7z"/>
<path d="M2467 663 c-9 -8 -9 -66 -1 -115 5 -29 11 -38 27 -38 18 0 19 5 14
78 -4 42 -6 78 -7 80 0 5 -27 2 -33 -5z"/>
</g>
</svg>
